<?xml version="1.0" encoding="UTF-8"?>
<svg id="Capa_2" data-name="Capa 2" xmlns="http://www.w3.org/2000/svg" viewBox="0 0 566.93 566.93">
  <defs>
    <style>
      .cls-1 {
        fill: #67af37;
      }

      .cls-2 {
        fill: #fff;
      }
    </style>
  </defs>
  <rect class="cls-1" width="566.93" height="566.93"/>
  <path class="cls-2" d="M413.31,317.86c1.94-.49,6.11-1.79,8.61-2.33,8.19-1.75,13.87-1.24,21.85-3.66,7.72-2.34,24.09-7.61,24-21.96,0,0-.32-5.33-.35-6.13,0-.07-.04-.39-.05-.46l-3.97-22.41c-.01-.07-10.9,1.09-10.97,1.1-2.34.3-8.9,1.17-11.18,1.57-12.49,2.16-19.31,8.49-20.4,21.71-.49,6-.02,13.55,3.13,18.06.17.24.67.99.89,1.19.03.02.78.94.81.94,14.06-1.17,19.37-15.35,23.84-27.79.06-.15-.07,1.67-.1,1.83l-.76,5.26c-2.01,13.81-8.14,21.84-22.16,25.28-14.15,3.46-33.82,5.97-43.69,18.51-8.63,10.97-3.7,22.14-.94,33.9.74,3.14,1.28,6.24,2.05,9.37.08.29.17.31.39.29s3.21-.41,3.6-.5c.27-.06.7-.08.81-.4v-.07c-1.14-5.85-2.6-11.65-3.73-17.5-1.26-6.5-2.13-12.14,1.29-18.35.11-.19.25-.37.49-.34.04,0,.08.03.1.07.21.43.75,2.79,1.13,3.95.17.52.96,2.79.96,3s-.48.92-.59,1.36c-.51,2.02.61,4.47,2.61,5.2.63.23,1.63,0,1.93.19.45.28,2.99,3.18,3.71,3.9,2.31,2.3,5.28,4.76,7.76,6.45.55.37,2.11,1.6,2.61,1.69.08.01.22-.03.4-.11,1.25-.56,1.29-2.31.07-2.95-2.55-1.33-4.96-2.92-7.09-4.86-1.08-.98-1.3-1.23-2.7-2.72-.81-.87-1.16-1.43-1.5-1.81-1.03-1.17-.28-.96.15-2.13,1.02-2.75-.15-5.06-3.03-5.78-.16-.04-.34-.05-.51-.06-.64-.01-1.23-.4-1.47-.99-.64-1.55-1.16-3.16-1.55-4.79-.53-2.2.11-4.53,1.72-6.13,2.78-2.75,5.32-5.68,9.04-6.86.91-.29,4.47-1.46,4.69-.95.17.39,2.65,5.67,3.06,6.31.44.69,2.78,3.77,2.94,3.98.28.38,0,.62-.16,1.45-.44,2.29,1.36,4.63,4.18,4.6.5,0,1.37-.62,2.13-.36.51.18,2.22,1.26,2.98,1.68h.02c1.01.57,2.27,0,2.45-1.14l.06-.36.03-.19s-.1-.06-.17-.1c-.92-.48-3.28-1.54-3.63-2.09-.17-.26.03-2.33-.41-3.34-.09-.2-.64-1.01-1.01-1.28-.8-.59-1.87-.92-2.87-.93-.75,0-1.34.26-1.55.18-.8-.28-4.99-8.84-4.78-9.64.08-.31,1.09-.63,1.45-.73.96-.26,1.36-.32,2.45-.62l.96-.19h-.03Z"/>
  <path class="cls-2" d="M421.41,320.97c1.17,6.61,2.74,13.67,1.99,20.43-.12,1.11-.89,6.37-1.79,6.67-.39.13-4.3-.47-4.36-.86-.05-.31-.27-1.29-.52-1.75-1.11-2.06-3.79-2.94-5.75-1.8-.46.26-.93.76-1.17.77-.68.02-4.03-2.59-4.72-3.2-3.97-3.49-6.85-8.29-8.21-13.36-.26-.13-.31-.08-.51,0-.92.36-1.8,1.2-2.69,1.66,2.43,6.4,7.04,11.9,12.5,16.01.52.39,2.21,1.28,2.46,1.61.08.1.18,1.72.57,2.41,1.13,1.99,3.83,2.92,5.9,1.87.35-.18.88-.82.92-.81,1.11.45,1.46.56,2.97.83.24.04.35.33.21.52-3.82,4.96-9.36,8.91-15.04,11.44-.7.31-4.23,1.83-4.7,1.83-.79,0-4.58-2.57-5.39-3.22-2.07-1.64-3.63-3.67-5.44-5.54-.15-.15-.4-.51-.63-.28.9,1.38.88,3.92,1.77,5.19.71,1.01,5.63,4.51,5.71,4.92.07.38-1.84.54-2.12.75-.33.17-2.17.28-2.26.35-.17.14.33,2.66.46,2.97.28.65,2.53.18,3.21.09,9.38-1.28,22.71-6.62,28.38-14.5,6.65-9.25,7.04-24.16,3.01-34.57-.13-.34-.47-1.13-.6-1.42l-4.15,1.02v-.03Z"/>
  <path class="cls-2" d="M87.21,266.85h15.33c8.74,0,17.71,1.83,17.71,13.94s-9.68,13.94-17.71,13.94h-4.37v13.06h-10.96v-40.95h0ZM102.92,286.33c5.15,0,6.53-2.16,6.53-5.26s-1.38-5.26-6.53-5.26h-4.76v10.51h4.76Z"/>
  <path class="cls-2" d="M165.52,266.85h11.07v32.04h17.21v8.91h-28.28v-40.95h0Z"/>
  <path class="cls-2" d="M196.84,266.85h11.07v40.95h-11.07v-40.95Z"/>
  <path class="cls-2" d="M222.85,276.04h-11.79v-9.19h34.64v9.19h-11.79v31.76h-11.07v-31.76h0Z"/>
  <path class="cls-2" d="M248.53,266.85h29.22v9.19h-18.15v6.64h12.95v8.63h-12.95v7.58h19.09v8.91h-30.16v-40.95ZM262.09,254.51h10.51l-8.41,10.01h-7.25l5.15-10.01Z"/>
  <path class="cls-2" d="M280.35,287.33c0-15,8.8-21.25,19.2-21.25,11.18,0,15.6,5.75,17.32,13.06l-10.46,3.1c-1.11-3.93-2.66-7.03-6.92-7.03-5.48,0-8.08,4.48-8.08,12.12s2.71,12.39,8.19,12.39c4.32,0,6.09-2.71,7.36-7.8l10.46,2.32c-1.99,8.3-6.7,14.33-17.87,14.33s-19.2-6.25-19.2-21.25h0Z"/>
  <path class="cls-2" d="M321.36,266.85h10.9l15,22.96h.11v-22.96h10.13v40.95h-10.24l-15.66-22.91h-.11v22.91h-10.13v-40.95Z"/>
  <path class="cls-2" d="M363.53,266.85h11.07v40.95h-11.07v-40.95Z"/>
  <path class="cls-2" d="M378.7,287.33c0-15,8.8-21.25,19.2-21.25,11.18,0,15.6,5.75,17.32,13.06l-10.46,3.1c-1.11-3.93-2.66-7.03-6.92-7.03-5.48,0-8.08,4.48-8.08,12.12s2.71,12.39,8.19,12.39c4.32,0,6.09-2.71,7.36-7.8l10.46,2.32c-1.99,8.3-6.7,14.33-17.87,14.33s-19.2-6.25-19.2-21.25h0Z"/>
  <path class="cls-2" d="M137.83,219.3h11.63c6.63,0,13.43,1.38,13.43,10.58s-7.35,10.58-13.43,10.58h-3.32v9.91h-8.31v-31.06h0ZM149.75,234.08c3.9,0,4.95-1.64,4.95-3.99s-1.05-3.99-4.95-3.99h-3.61v7.98h3.61Z"/>
  <path class="cls-2" d="M165.33,219.3h12.13c7.98,0,12.85,2.64,12.85,10.12,0,4.87-2.06,7.68-6.13,9.07l6.59,11.88h-8.9l-6-10.79h-2.31v10.79h-8.23v-31.06h0ZM177.17,233.2c3.44,0,4.95-.97,4.95-3.57s-1.51-3.53-4.95-3.53h-3.61v7.1h3.61Z"/>
  <path class="cls-2" d="M192.58,234.83c0-11.38,7.77-16.12,15.28-16.12s15.24,4.74,15.24,16.12-7.77,16.12-15.24,16.12-15.28-4.74-15.28-16.12ZM214.7,234.83c0-5.71-2.48-9.19-6.84-9.19s-6.88,3.48-6.88,9.19,2.48,9.4,6.88,9.4,6.84-3.69,6.84-9.4Z"/>
  <path class="cls-2" d="M225.95,219.3h10.2c9.24,0,17.08,3.53,17.08,15.32s-7.98,15.74-17.08,15.74h-10.2v-31.06ZM236.62,243.61c6.34,0,8.23-2.6,8.23-8.9,0-5.75-1.93-8.44-8.31-8.44h-2.23v17.34h2.31Z"/>
  <path class="cls-2" d="M255.47,237.9v-18.6h8.4v18.55c0,4.28,1.38,6.21,4.74,6.21s4.7-1.93,4.7-6.21v-18.55h8.23v18.6c0,8.23-3.95,12.93-13.01,12.93s-13.06-4.7-13.06-12.93Z"/>
  <path class="cls-2" d="M283.76,234.83c0-11.38,6.67-16.12,14.57-16.12,8.48,0,11.84,4.37,13.14,9.91l-7.93,2.35c-.84-2.98-2.01-5.33-5.25-5.33-4.16,0-6.13,3.4-6.13,9.19s2.06,9.4,6.21,9.4c3.27,0,4.62-2.06,5.58-5.92l7.93,1.76c-1.51,6.3-5.08,10.87-13.56,10.87s-14.57-4.74-14.57-16.12h.01Z"/>
  <path class="cls-2" d="M321.63,226.27h-8.94v-6.97h26.28v6.97h-8.94v24.1h-8.4v-24.1Z"/>
  <path class="cls-2" d="M339.65,234.83c0-11.38,7.77-16.12,15.28-16.12s15.24,4.74,15.24,16.12-7.77,16.12-15.24,16.12-15.28-4.74-15.28-16.12ZM361.77,234.83c0-5.71-2.48-9.19-6.84-9.19s-6.88,3.48-6.88,9.19,2.48,9.4,6.88,9.4,6.84-3.69,6.84-9.4Z"/>
  <path class="cls-2" d="M371.26,243.52l6.21-3.86c1.85,2.98,4.91,4.7,8.14,4.7,2.56,0,4.49-.76,4.49-2.69s-2.48-2.73-5.54-3.48c-5.08-1.3-11.84-2.6-11.84-9.65,0-6.34,4.79-9.82,11.84-9.82,6.59,0,10.54,3.06,13.01,6.09l-5.62,4.62c-1.72-2.1-4.74-3.9-7.43-3.9-2.39,0-3.61.8-3.61,2.27,0,2.06,2.43,2.81,5.5,3.57,5.08,1.22,11.88,2.77,11.88,9.74,0,4.95-3.48,9.86-13.06,9.86-7.09,0-11.33-3.19-13.98-7.43v-.02Z"/>
  <path class="cls-2" d="M447.71,322.25c3.48-.22,5.95,2.95,4.95,6.29-1.23,4.1-7.31,4.42-9.04.51-1.38-3.11.7-6.58,4.1-6.8h-.01ZM447.94,324.57c-3.17.11-3.03,5.17.34,4.9,3.03-.24,2.8-5.01-.34-4.9Z"/>
  <path class="cls-2" d="M484.32,322.41v2.15h-4.27s-.07.06-.07.07v1.27h3.95s.07.06.07.07v2.12h-4.02v1.32s.06.07.07.07h4.27v2.15h-6.7v-9.21h6.7,0Z"/>
  <path class="cls-2" d="M476.37,322.36v2.23h-4.2v1.52h3.71v2.19h-3.71v3.28s-.06.07-.07.07h-2.23s-.07-.06-.07-.07v-9.16s.06-.07.07-.07h6.5Z"/>
  <path class="cls-2" d="M460.1,322.41v6.97h4.45s.07.06.07.07v2.17h-6.88v-9.21h2.37-.01Z"/>
  <path class="cls-2" d="M437.4,329.47c-1,.44-2.24.84-2.59,2.01-.45-2.69,3.78-3.73,5.27-5.16.06-.06.4-.36.2-.38-1.75,1.41-4.6,1.63-5.52,3.93-.08-.03-.05-.27-.05-.34.08-1.23.67-2.42,1.66-3.17,1.18-.89,2.7-1.06,3.97-1.77.61-.34,1.36-.98,1.68-1.61.08-.15.09-.33.2-.45.15,1.1.18,2.5-.22,3.55-.67,1.75-3.01,2.67-4.6,3.37v.02ZM440.39,325.9c.08.01.15-.05.13-.13l-.13.13Z"/>
  <path class="cls-2" d="M437.4,329.47l4.92.04v2.15h-7.51v-.18c.35-1.17,1.59-1.57,2.59-2.01Z"/>
  <path class="cls-2" d="M440.35,324.6l-5.36-.04v-2.15h7.21s.02.09.03.13c-.11.12-.12.3-.2.45-.31.63-1.07,1.27-1.68,1.61Z"/>
  <path class="cls-2" d="M454.16,321.44l-.24.43c-.12-1.61,1.67-2.06,2.71-2.81.23-.17.39-.33.59-.52l-1.58.7c-.72.34-1.48.85-1.73,1.65-.08-.02-.08-.07-.08-.14.13-2.91,2.51-2.18,4.1-3.77l.31-.47c.19,1.39.18,2.69-1.03,3.59-.99.73-2.07.7-3.06,1.34h0Z"/>
  <path class="cls-2" d="M440.39,325.9l.13-.13c.02.08-.05.15-.13.13Z"/>
  <polygon class="cls-2" points="456.23 322.41 453.86 322.41 453.86 331.65 456.23 331.66 456.23 322.41"/>
  <polygon class="cls-2" points="468.23 322.4 465.86 322.4 465.85 331.64 468.23 331.65 468.23 322.4"/>
  <path class="cls-2" d="M130.59,305.8s6.56,3.98,17.22,1.93c10.1-1.95,13.03-13.21,13.03-13.21,1.01-3.43.91-2.98,1.08-8.55.02-.74-.15-3.07-.16-3.15l-1.01-16.37c-1.28-.06-13.35-.32-14.19-.38-3.07-.23-6.91-.09-9.17.4-12.41,2.72-15.86,11.86-15.86,20.85,0,6.02,1.23,9.62,4.37,14.13l1.01,1.16s15.11-9.09,18.01-20.3c0,0-2.74,15.9-14.32,23.48"/>
</svg>